<?xml version="1.0" encoding="utf-8"?>
<!-- Generator: Adobe Illustrator 24.2.0, SVG Export Plug-In . SVG Version: 6.00 Build 0)  -->
<svg version="1.1" id="Layer_1" xmlns="http://www.w3.org/2000/svg" xmlns:xlink="http://www.w3.org/1999/xlink" x="0px" y="0px"
	 viewBox="0 0 369.5 111.9" style="enable-background:new 0 0 369.5 111.9;" xml:space="preserve">
<style type="text/css">
	.st0{enable-background:new    ;}
	.st1{fill:#909090;}
	.st2{fill:#FF500D;}
</style>
<g id="eduSign">
	<g class="st0">
		<path class="st1" d="M31.9,86.7c-8.2,0-14.9-2.6-20-7.8c-5.1-5.2-7.7-12.1-7.7-20.7v-1.6c0-5.8,1.1-10.9,3.3-15.4
			c2.2-4.5,5.3-8.1,9.4-10.6c4-2.5,8.5-3.8,13.4-3.8c7.9,0,13.9,2.5,18.2,7.5c4.3,5,6.4,12.1,6.4,21.3v5.2H17.4
			c0.4,4.8,2,8.5,4.8,11.3c2.8,2.8,6.3,4.2,10.5,4.2c5.9,0,10.8-2.4,14.5-7.2l7,6.7c-2.3,3.5-5.4,6.1-9.3,8
			C41.1,85.7,36.7,86.7,31.9,86.7z M30.4,37.2c-3.6,0-6.4,1.2-8.6,3.7c-2.2,2.5-3.6,6-4.2,10.4h24.7v-1c-0.3-4.3-1.4-7.6-3.5-9.8
			S34,37.2,30.4,37.2z"/>
		<path class="st1" d="M58.3,56.3c0-8.9,2.1-16,6.2-21.4c4.1-5.4,9.7-8.1,16.6-8.1c6.1,0,11.1,2.1,14.8,6.4V3.6h13v81.9H97.2l-0.6-6
			c-3.9,4.7-9,7-15.5,7c-6.7,0-12.2-2.7-16.4-8.2C60.4,73.1,58.3,65.6,58.3,56.3z M71.3,57.4c0,5.9,1.1,10.4,3.4,13.7
			c2.3,3.3,5.5,4.9,9.6,4.9c5.3,0,9.2-2.4,11.6-7.1V44.3c-2.4-4.6-6.2-6.9-11.5-6.9c-4.2,0-7.4,1.7-9.7,5
			C72.5,45.7,71.3,50.7,71.3,57.4z"/>
		<path class="st1" d="M153,79.9c-3.8,4.5-9.2,6.7-16.2,6.7c-6.3,0-11-1.8-14.2-5.5c-3.2-3.7-4.8-9-4.8-15.9V27.9h13v37.2
			c0,7.3,3,11,9.1,11c6.3,0,10.5-2.3,12.8-6.8V27.9h13v57.7h-12.2L153,79.9z"/>
	</g>
	<g class="st0">
		<path class="st2" d="M216.3,65.6c0-3.4-1.2-6-3.6-7.9c-2.4-1.9-6.7-3.7-13-5.6c-6.3-1.9-11.2-4-14.9-6.3
			c-7.1-4.4-10.6-10.2-10.6-17.4c0-6.3,2.6-11.4,7.7-15.5c5.1-4.1,11.7-6.1,19.9-6.1c5.4,0,10.2,1,14.5,3c4.2,2,7.6,4.8,10,8.5
			c2.4,3.7,3.6,7.8,3.6,12.2h-13.4c0-4.1-1.3-7.2-3.8-9.5c-2.5-2.3-6.2-3.4-10.9-3.4c-4.4,0-7.8,0.9-10.3,2.8
			c-2.4,1.9-3.7,4.5-3.7,7.9c0,2.8,1.3,5.2,3.9,7.1c2.6,1.9,7,3.7,13,5.5c6.1,1.8,10.9,3.8,14.6,6.1c3.7,2.3,6.3,4.9,8.1,7.9
			c1.7,3,2.6,6.4,2.6,10.4c0,6.5-2.5,11.6-7.4,15.4c-5,3.8-11.7,5.7-20.2,5.7c-5.6,0-10.8-1-15.5-3.1c-4.7-2.1-8.4-4.9-11-8.6
			c-2.6-3.7-3.9-7.9-3.9-12.8h13.5c0,4.4,1.5,7.8,4.4,10.2c2.9,2.4,7.1,3.6,12.5,3.6c4.7,0,8.2-0.9,10.6-2.9
			C215.1,71.2,216.3,68.7,216.3,65.6z"/>
		<path class="st2" d="M236.1,12.9c0-2,0.6-3.6,1.9-5c1.3-1.3,3.1-2,5.4-2c2.3,0,4.2,0.7,5.4,2s1.9,3,1.9,5c0,2-0.6,3.6-1.9,4.9
			c-1.3,1.3-3.1,1.9-5.4,1.9c-2.3,0-4.2-0.7-5.4-1.9C236.7,16.5,236.1,14.8,236.1,12.9z M249.8,85.6h-13V27.9h13V85.6z"/>
		<path class="st2" d="M257.3,56.3c0-9,2.1-16.1,6.3-21.5s9.8-8,16.8-8c6.6,0,11.7,2.3,15.5,6.9l0.6-5.8h11.7v56
			c0,7.6-2.4,13.6-7.1,17.9c-4.7,4.4-11.1,6.6-19.1,6.6c-4.2,0-8.4-0.9-12.4-2.6c-4-1.8-7.1-4.1-9.2-6.9l6.1-7.8
			c4,4.7,8.9,7.1,14.7,7.1c4.3,0,7.7-1.2,10.2-3.5c2.5-2.3,3.7-5.7,3.7-10.3v-3.9c-3.7,4.2-8.7,6.2-14.9,6.2
			c-6.8,0-12.3-2.7-16.6-8.1C259.4,73.2,257.3,65.8,257.3,56.3z M270.2,57.4c0,5.8,1.2,10.4,3.5,13.7c2.4,3.3,5.6,5,9.8,5
			c5.2,0,9.1-2.2,11.6-6.7V44c-2.5-4.4-6.3-6.6-11.5-6.6c-4.3,0-7.6,1.7-9.9,5.1C271.4,45.9,270.2,50.8,270.2,57.4z"/>
		<path class="st2" d="M329.2,27.9l0.4,6.7c4.3-5.2,9.9-7.7,16.8-7.7c12,0,18.1,6.9,18.4,20.6v38.1h-13V48.2c0-3.7-0.8-6.4-2.4-8.1
			c-1.6-1.8-4.2-2.6-7.8-2.6c-5.2,0-9.1,2.4-11.7,7.1v41.1h-13V27.9H329.2z"/>
	</g>
</g>
</svg>
